<svg width="186" height="102" viewBox="0 0 186 102" fill="none" xmlns="http://www.w3.org/2000/svg">
<path d="M14.4391 42C9.44577 42 5.8291 40.9033 3.5891 38.71C1.3491 36.5167 0.229102 32.97 0.229102 28.07V15.26C0.229102 10.22 1.46577 6.55667 3.9391 4.27C6.41244 1.93666 9.91244 0.769997 14.4391 0.769997H34.8791C38.0991 0.769997 40.5491 0.956664 42.2291 1.33C43.9558 1.65667 44.8191 2.00667 44.8191 2.38L42.6491 11.13C41.4824 10.99 39.1958 10.85 35.7891 10.71C32.4291 10.5233 28.1824 10.43 23.0491 10.43H19.4791C17.2858 10.43 15.7924 10.85 14.9991 11.69C14.2524 12.4833 13.8791 13.72 13.8791 15.4V27.37C13.8791 28.9567 14.2058 30.1933 14.8591 31.08C15.5591 31.92 17.0991 32.34 19.4791 32.34H22.3491C29.0224 32.34 34.1091 32.27 37.6091 32.13C41.1091 31.9433 43.2091 31.7567 43.9091 31.57L48.1791 39.13C48.1791 39.3633 47.6891 39.7133 46.7091 40.18C45.7758 40.6467 44.1658 41.0667 41.8791 41.44C39.6391 41.8133 36.5124 42 32.4991 42H14.4391ZM60.1664 42L80.6764 0.84H98.8764L119.316 42H104.266L100.836 34.51H78.7164L74.8664 42H60.1664ZM82.5664 24.85H96.9164L90.1264 9.94H89.4264L82.5664 24.85ZM136.199 42V6.44L135.499 0.84H148.379L168.119 20.86L170.849 23.94H171.619V0.84H185.059V42H173.369L153.069 21.77L150.339 18.48H149.639V42H136.199ZM4.21211 102V66.44L3.51211 60.84H20.4521L32.7721 85.34L45.3721 60.84H61.4021V102H48.0321V78.41H47.2621L44.3221 85.97L39.2121 97.8H26.4721L21.1521 85.97L18.2821 78.41H17.5821V102H4.21211ZM67.5834 102L88.0934 60.84H106.293L126.733 102H111.683L108.253 94.51H86.1334L82.2834 102H67.5834ZM89.9834 84.85H104.333L97.5434 69.94H96.8434L89.9834 84.85ZM133.616 102V66.44L132.916 60.84H145.796L165.536 80.86L168.266 83.94H169.036V60.84H182.476V102H170.786L150.486 81.77L147.756 78.48H147.056V102H133.616Z" fill="white"/>
</svg>
